<?xml version="1.0" encoding="UTF-8" standalone="no"?><!DOCTYPE svg PUBLIC "-//W3C//DTD SVG 1.1//EN" "http://www.w3.org/Graphics/SVG/1.1/DTD/svg11.dtd"><svg width="100%" height="100%" viewBox="0 0 90 90" version="1.1" xmlns="http://www.w3.org/2000/svg" xmlns:xlink="http://www.w3.org/1999/xlink" xml:space="preserve" xmlns:serif="http://www.serif.com/" style="fill-rule:evenodd;clip-rule:evenodd;stroke-linejoin:round;stroke-miterlimit:2;"><g><path d="M52.312,56.055c1.102,-0.883 2.039,-1.973 2.766,-3.223l3.191,0.59c0.563,-1.152 0.988,-2.394 1.238,-3.719c0.242,-1.32 0.293,-2.632 0.184,-3.914l-3.188,-0.597c-0.226,-1.426 -0.711,-2.782 -1.414,-4.004l2.114,-2.469c-1.457,-2.152 -3.485,-3.902 -5.907,-5.047l-2.109,2.465c-0.652,-0.25 -1.336,-0.453 -2.051,-0.59c-0.715,-0.129 -1.426,-0.188 -2.129,-0.188l-1.074,-3.062c-2.664,0.195 -5.191,1.102 -7.324,2.578l1.086,3.066c-1.106,0.887 -2.039,1.977 -2.766,3.231l-3.195,-0.598c-0.559,1.156 -0.992,2.395 -1.238,3.719c-0.25,1.324 -0.289,2.637 -0.188,3.914l3.195,0.598c0.223,1.426 0.704,2.781 1.414,4.004l-2.117,2.469c1.457,2.152 3.489,3.902 5.903,5.046l2.105,-2.464c0.652,0.254 1.336,0.453 2.051,0.589c0.715,0.133 1.426,0.188 2.125,0.188l1.078,3.059c2.672,-0.196 5.191,-1.098 7.324,-2.579l-1.082,-3.07l0.008,0.008Zm-6.469,-4.465c-2.535,0.469 -4.969,-1.207 -5.437,-3.742c-0.461,-2.535 1.214,-4.973 3.754,-5.438c2.535,-0.464 4.968,1.211 5.429,3.75c0.465,2.532 -1.211,4.965 -3.746,5.434l0,-0.004Z" style="fill-rule:nonzero;"/><path d="M69.164,70.883c1.129,2.039 2.938,3.211 5.168,3.211c3.059,-0 5.59,-2.449 6.156,-5.953c0.227,-1.387 0.59,-3.934 0.672,-5.266c0.109,-1.734 -0.504,-3.41 -1.73,-4.719c-0.543,-0.578 -1.184,-1.05 -1.879,-1.41c0.742,-2.476 1.23,-5.066 1.386,-7.742l-8.019,-0c-0.977,12.742 -11.172,22.941 -23.914,23.914l-0,8.019c8.648,-0.503 16.438,-4.261 22.164,-10.055l-0.004,0.001Zm9.203,-8.184c-0.074,1.219 -0.433,3.707 -0.641,4.993c-0.289,1.793 -1.449,3.601 -3.394,3.601c-2.297,0 -3.121,-2.297 -3.406,-3.664c-0.246,-1.176 -0.551,-3.66 -0.633,-4.93c-0.063,-0.957 0.285,-1.89 0.98,-2.629c0.786,-0.839 1.903,-1.32 3.059,-1.32c1.156,0 2.27,0.481 3.055,1.32c0.691,0.739 1.039,1.672 0.98,2.629l0,0.004l0,-0.004Z" style="fill-rule:nonzero;"/><path d="M88.961,83.32c-0.855,-4.449 -4.801,-7.68 -9.375,-7.68l-10.508,0c-4.586,0 -8.531,3.242 -9.383,7.727l-0.863,4.894c-0.07,0.407 0.039,0.825 0.309,1.145c0.265,0.316 0.66,0.5 1.07,0.5l28.234,-0c0.414,-0 0.804,-0.184 1.07,-0.5c0.266,-0.317 0.379,-0.734 0.309,-1.141l-0.867,-4.941l0.004,-0.004Zm-27.082,3.785l0.57,-3.234c0.598,-3.145 3.387,-5.43 6.629,-5.43l10.508,0c3.235,0 6.024,2.277 6.621,5.387l0.575,3.277l-24.903,0Z" style="fill-rule:nonzero;"/><path d="M19.086,49l-8.02,0c0.157,2.68 0.641,5.266 1.387,7.742c-0.695,0.36 -1.336,0.832 -1.879,1.41c-1.226,1.309 -1.844,2.985 -1.73,4.723c0.09,1.391 0.41,4.02 0.687,5.32c0.77,3.688 3.067,5.891 6.145,5.891c2.164,0 4.058,-1.23 5.187,-3.187c5.727,5.781 13.504,9.527 22.141,10.031l0,-8.02c-12.742,-0.977 -22.941,-11.172 -23.914,-23.914l-0.004,0.004Zm0.621,13.699c-0.074,1.219 -0.434,3.707 -0.641,4.992c-0.289,1.793 -1.449,3.602 -3.394,3.602c-2.297,-0 -3.121,-2.297 -3.406,-3.664c-0.246,-1.176 -0.551,-3.661 -0.633,-4.93c-0.063,-0.957 0.285,-1.891 0.98,-2.629c0.789,-0.84 1.903,-1.32 3.059,-1.32c1.156,-0 2.27,0.48 3.055,1.32c0.691,0.738 1.039,1.672 0.98,2.629l0,0.004l0,-0.004Z" style="fill-rule:nonzero;"/><path d="M30.301,83.32c-0.855,-4.449 -4.801,-7.68 -9.375,-7.68l-10.504,0c-4.59,0 -8.531,3.242 -9.383,7.727l-0.863,4.894c-0.07,0.407 0.039,0.825 0.309,1.145c0.265,0.316 0.66,0.5 1.07,0.5l28.234,-0c0.414,-0 0.805,-0.184 1.07,-0.5c0.266,-0.317 0.379,-0.734 0.309,-1.141l-0.867,-4.941l0,-0.004Zm-27.082,3.785l0.57,-3.234c0.598,-3.145 3.387,-5.43 6.629,-5.43l10.504,0c3.235,0 6.024,2.277 6.621,5.387l0.575,3.277l-24.899,0Z" style="fill-rule:nonzero;"/><path d="M68.184,12.348c0.77,3.687 3.066,5.891 6.144,5.891c3.059,-0 5.59,-2.45 6.157,-5.954c0.156,-0.96 0.578,-3.773 0.672,-5.265c0.109,-1.735 -0.504,-3.41 -1.731,-4.719c-1.312,-1.402 -3.172,-2.203 -5.098,-2.203c-1.925,-0 -3.785,0.805 -5.101,2.203c-1.227,1.309 -1.844,2.984 -1.731,4.723c0.09,1.39 0.41,4.019 0.684,5.32l0.004,0.004Zm3.09,-8.129c0.785,-0.84 1.902,-1.32 3.058,-1.32c1.157,-0 2.27,0.48 3.055,1.32c0.692,0.738 1.039,1.672 0.981,2.629l-0,0.004c-0.075,1.223 -0.434,3.711 -0.641,4.992c-0.289,1.793 -1.449,3.602 -3.395,3.602c-2.296,-0 -3.121,-2.297 -3.406,-3.664c-0.246,-1.176 -0.551,-3.661 -0.633,-4.93c-0.062,-0.957 0.286,-1.891 0.981,-2.629l-0,-0.004Z" style="fill-rule:nonzero;"/><path d="M59.695,27.512l-0.863,4.895c-0.071,0.406 0.039,0.824 0.308,1.14c0.266,0.317 0.66,0.5 1.071,0.5l7.297,0c1.894,3.27 3.101,6.981 3.406,10.949l8.019,0c-0.226,-3.855 -1.101,-7.539 -2.511,-10.949l12.023,0c0.414,0 0.804,-0.183 1.07,-0.5c0.265,-0.316 0.379,-0.734 0.308,-1.141l-0.867,-4.941c-0.855,-4.453 -4.801,-7.684 -9.375,-7.684l-10.508,0c-1.074,0 -2.109,0.184 -3.082,0.516c-5.297,-4.176 -11.848,-6.82 -18.996,-7.234l0,8.019c4.887,0.375 9.387,2.125 13.145,4.84c-0.191,0.508 -0.344,1.039 -0.449,1.59l0.004,-0Zm19.891,-4.926c3.234,0 6.023,2.277 6.621,5.391l0.574,3.277l-24.902,0l0.571,-3.234c0.597,-3.149 3.386,-5.434 6.629,-5.434l10.507,0Z" style="fill-rule:nonzero;"/><path d="M9.523,12.348c0.77,3.687 3.066,5.891 6.145,5.891c3.058,-0 5.589,-2.45 6.156,-5.954c0.156,-0.96 0.578,-3.773 0.672,-5.265c0.109,-1.735 -0.504,-3.41 -1.731,-4.719c-1.312,-1.402 -3.172,-2.203 -5.098,-2.203c-1.925,-0 -3.785,0.805 -5.101,2.203c-1.227,1.309 -1.844,2.984 -1.731,4.723c0.09,1.39 0.41,4.019 0.688,5.32l0,0.004Zm3.09,-8.129c0.789,-0.84 1.902,-1.32 3.058,-1.32c1.157,-0 2.27,0.48 3.055,1.32c0.692,0.738 1.039,1.672 0.981,2.629l-0,0.004c-0.075,1.223 -0.434,3.711 -0.641,4.992c-0.289,1.793 -1.449,3.602 -3.395,3.602c-2.296,-0 -3.121,-2.297 -3.406,-3.664c-0.246,-1.176 -0.551,-3.661 -0.633,-4.93c-0.062,-0.953 0.286,-1.891 0.981,-2.629l-0,-0.004Z" style="fill-rule:nonzero;"/><path d="M1.551,34.051l12.02,0c-1.41,3.406 -2.285,7.09 -2.512,10.949l8.02,0c0.304,-3.969 1.515,-7.68 3.406,-10.949l7.297,0c0.414,0 0.804,-0.184 1.07,-0.5c0.266,-0.316 0.379,-0.734 0.309,-1.141l-0.868,-4.941c-0.101,-0.535 -0.254,-1.051 -0.441,-1.551c3.758,-2.711 8.254,-4.461 13.141,-4.836l-0,-8.019c-7.148,0.418 -13.703,3.062 -18.996,7.234c-0.973,-0.328 -2.008,-0.512 -3.078,-0.512l-10.504,0c-4.59,0 -8.535,3.243 -9.383,7.727l-0.863,4.895c-0.071,0.406 0.039,0.824 0.308,1.14c0.266,0.317 0.661,0.5 1.071,0.5l0.003,0.004Zm2.238,-6.035c0.598,-3.149 3.387,-5.43 6.629,-5.43l10.504,0c3.234,0 6.023,2.277 6.621,5.391l0.574,3.277l-24.898,-0l0.571,-3.234l-0.001,-0.004Z" style="fill-rule:nonzero;"/></g></svg>