<?xml version="1.0" encoding="UTF-8" standalone="no"?><!DOCTYPE svg PUBLIC "-//W3C//DTD SVG 1.1//EN" "http://www.w3.org/Graphics/SVG/1.1/DTD/svg11.dtd"><svg width="100%" height="100%" viewBox="0 0 90 90" version="1.1" xmlns="http://www.w3.org/2000/svg" xmlns:xlink="http://www.w3.org/1999/xlink" xml:space="preserve" xmlns:serif="http://www.serif.com/" style="fill-rule:evenodd;clip-rule:evenodd;stroke-linejoin:round;stroke-miterlimit:2;"><path d="M39.123,12.282c0.769,3.669 3.058,5.86 6.121,5.86c3.047,0 5.568,-2.436 6.131,-5.924c0.224,-1.385 0.587,-3.923 0.67,-5.235c0.109,-1.728 -0.503,-3.398 -1.726,-4.7c-1.309,-1.394 -3.158,-2.194 -5.075,-2.194c-1.919,0 -3.769,0.799 -5.077,2.194c-1.223,1.303 -1.835,2.972 -1.725,4.7c0.088,1.364 0.403,3.976 0.681,5.299Zm3.086,-8.084c0.78,-0.832 1.887,-1.31 3.035,-1.31c1.146,-0 2.252,0.478 3.033,1.31c0.688,0.733 1.033,1.659 0.973,2.607l0,0.001c-0.076,1.204 -0.433,3.685 -0.639,4.965c-0.287,1.777 -1.439,3.57 -3.367,3.57c-2.278,0 -3.097,-2.277 -3.381,-3.635c-0.244,-1.159 -0.548,-3.664 -0.626,-4.901c-0.06,-0.948 0.285,-1.874 0.972,-2.607Z" style="fill-rule:nonzero;"/><path d="M55.628,52.175l0.564,0.493c0.313,0.274 0.729,0.393 1.145,0.328c0.41,-0.066 0.771,-0.312 0.982,-0.671l8.509,-14.427c0.278,-0.472 0.256,-1.063 -0.058,-1.513l-9.46,-13.559c-0.038,-0.054 -0.079,-0.104 -0.124,-0.152c-1.796,-1.931 -4.342,-3.038 -6.984,-3.038l-10.406,-0c-2.642,-0 -5.188,1.107 -6.983,3.038c-0.045,0.048 -0.086,0.099 -0.124,0.152l-9.46,13.559c-0.314,0.45 -0.336,1.041 -0.058,1.512l8.508,14.427c0.212,0.359 0.571,0.605 0.982,0.671c0.414,0.066 0.831,-0.053 1.145,-0.327l0.565,-0.494l-1.659,31.737l-20.701,-0l0,6l66.467,-0l0,-6l-21.192,-0l-1.658,-31.736Zm-0.479,-9.173l-0.394,-7.541l2.737,2.577l-2.343,4.964Zm-21.914,6.448l-7.194,-12.2l8.886,-12.737c1.265,-1.321 3.034,-2.077 4.87,-2.077l10.406,-0c1.836,-0 3.607,0.756 4.871,2.077l8.886,12.737l-7.195,12.2l-1.106,-0.966l4.801,-10.169c0.26,-0.548 0.136,-1.201 -0.306,-1.617l-6.017,-5.665c-0.417,-0.392 -1.03,-0.492 -1.549,-0.251c-0.519,0.241 -0.839,0.773 -0.809,1.344l2.87,54.94l-3.143,0l-5.142,-32.18c-0.109,-0.68 -0.695,-1.179 -1.383,-1.179l-0.001,0c-0.689,0 -1.274,0.501 -1.382,1.181l-5.104,32.179l-3.142,0l2.871,-54.94c0.029,-0.571 -0.291,-1.103 -0.809,-1.343c-0.52,-0.241 -1.132,-0.141 -1.549,0.251l-6.019,5.665c-0.441,0.416 -0.565,1.069 -0.306,1.617l4.801,10.169l-1.106,0.964Zm14.929,34.461l-6.336,0l3.156,-19.9l3.18,19.9Zm-15.658,-45.872l2.738,-2.578l-0.393,7.542l-2.345,-4.964Z" style="fill-rule:nonzero;"/><path d="M15.822,6.286l-2.828,2.829l7.263,7.262l2.828,-2.828l-7.263,-7.263Z"/><rect x="0.909" y="34.163" width="11.336" height="4"/><path d="M20.255,55.952l-7.263,7.262l2.828,2.829l7.263,-7.262l-2.828,-2.829Z"/><path d="M69.747,55.947l-2.828,2.829l7.264,7.263l2.829,-2.829l-7.265,-7.263Z"/><rect x="77.754" y="34.163" width="11.337" height="4"/><path d="M74.177,6.286l-7.265,7.263l2.828,2.828l7.265,-7.262l-2.828,-2.829Z"/></svg>