<?xml version="1.0" encoding="UTF-8" standalone="no"?><!DOCTYPE svg PUBLIC "-//W3C//DTD SVG 1.1//EN" "http://www.w3.org/Graphics/SVG/1.1/DTD/svg11.dtd"><svg width="100%" height="100%" viewBox="0 0 3162 879" version="1.1" xmlns="http://www.w3.org/2000/svg" xmlns:xlink="http://www.w3.org/1999/xlink" xml:space="preserve" xmlns:serif="http://www.serif.com/" style="fill-rule:evenodd;clip-rule:evenodd;stroke-linejoin:round;stroke-miterlimit:2;"><g><g><g id="SvgjsG1035"><g><path d="M243.721,270.404l136.044,0l0,67.386l77.654,0l0,-123.046l50.926,-28.767l0,84.427l220.908,0l162.639,313.084l-24.34,0l-148.184,-284.152l-148.195,284.152l-490.092,0l162.64,-313.084Z" style="fill:url(#_Radial1);fill-rule:nonzero;"/><path d="M429.736,183.862l70.487,0l-43.977,25.019l-70.477,0l43.967,-25.019Z" style="fill:url(#_Radial2);fill-rule:nonzero;"/></g></g></g><g transform="matrix(633.805,0,0,633.805,2921.43,604.125)"></g><text x="950px" y="604.125px" style="font-family:'ArgentCF-Regular', 'Argent CF';font-size:633.805px;stroke:#000;stroke-width:1px;">B<tspan x="1316.95px 1559.48px 1856.49px 2150.4px 2426.05px 2570.48px " y="604.125px 604.125px 604.125px 604.125px 604.125px 604.125px ">reezly</tspan></text></g><defs><radialGradient id="_Radial1" cx="0" cy="0" r="1" gradientUnits="userSpaceOnUse" gradientTransform="matrix(810.811,0,0,399.626,81.081,383.675)"><stop offset="0" style="stop-color:#34d399;stop-opacity:1"/><stop offset="1" style="stop-color:#14b8a6;stop-opacity:1"/></radialGradient><radialGradient id="_Radial2" cx="0" cy="0" r="1" gradientUnits="userSpaceOnUse" gradientTransform="matrix(810.811,0,0,399.626,81.081,383.675)"><stop offset="0" style="stop-color:#34d399;stop-opacity:1"/><stop offset="1" style="stop-color:#14b8a6;stop-opacity:1"/></radialGradient></defs></svg>