<?xml version="1.0" encoding="UTF-8" standalone="no"?><!DOCTYPE svg PUBLIC "-//W3C//DTD SVG 1.1//EN" "http://www.w3.org/Graphics/SVG/1.1/DTD/svg11.dtd"><svg width="100%" height="100%" viewBox="0 0 3162 879" version="1.1" xmlns="http://www.w3.org/2000/svg" xmlns:xlink="http://www.w3.org/1999/xlink" xml:space="preserve" xmlns:serif="http://www.serif.com/" style="fill-rule:evenodd;clip-rule:evenodd;stroke-linejoin:round;stroke-miterlimit:2;"><g><g><g id="SvgjsG1035"><g><path d="M243.721,270.404l136.044,0l0,67.386l77.654,0l-0,-123.046l50.926,-28.767l-0,84.427l220.908,0l162.639,313.084l-24.34,-0l-148.184,-284.152l-148.195,284.152l-490.092,-0l162.64,-313.084Z" style="fill:#187ffd;fill-rule:nonzero;"/><path d="M429.736,183.862l70.487,0l-43.977,25.019l-70.477,0l43.967,-25.019Z" style="fill:#187ffd;fill-rule:nonzero;"/></g></g><g id="SvgjsG1036"><path d="M1289.73,373.236c75.841,11.909 115.955,50.769 115.955,104.673c0,68.32 -58.291,109.688 -169.859,109.688l-181.768,-0l0,-20.058c33.847,-2.507 44.502,-6.894 44.502,-22.564l-0,-295.843c-0,-16.923 -9.402,-28.205 -41.995,-30.713l0,-20.057c57.665,2.507 108.434,0 144.788,0c130.371,0 161.711,49.516 161.711,94.645c-0,32.593 -18.804,59.545 -73.334,80.229Zm-117.209,-152.309l-0,157.95c91.51,-13.79 118.462,-34.474 118.462,-85.87c0,-39.488 -21.937,-72.707 -79.602,-72.707c-20.057,-0 -28.832,-0 -38.86,0.627Zm60.798,343.478c65.812,0 96.525,-28.205 96.525,-85.243c0,-50.769 -31.966,-89.63 -91.511,-89.63l-65.812,10.655l-0,144.161c-0,15.67 1.88,20.057 33.846,20.057l26.952,0Zm400.516,-297.096c30.713,-0 51.397,16.296 51.397,38.234c-0,21.937 -15.67,34.473 -32.593,34.473c-28.832,-0 -28.205,-25.072 -55.157,-25.072c-36.354,0 -50.143,46.383 -55.157,60.799l-0,168.605c-0,15.67 17.55,20.684 38.234,23.191l-0,20.058c-48.89,-2.508 -97.779,-2.508 -146.668,-0l-0,-20.058c21.31,-2.507 38.233,-7.521 38.233,-23.191l0,-199.318c0,-21.937 -13.789,-26.952 -38.233,-23.818l-0,-20.057c55.157,-10.028 78.975,-35.1 93.391,-35.1c10.655,0 16.923,7.522 15.043,19.431l-9.402,62.678c22.564,-51.396 52.023,-80.855 100.912,-80.855Zm315.901,251.341c6.267,0 8.775,6.268 4.387,14.416c-16.923,35.1 -50.77,60.798 -105.3,60.798c-83.989,0 -151.682,-57.037 -151.682,-163.591c-0,-104.046 70.2,-161.711 144.161,-161.711c72.08,0 129.118,50.143 129.118,129.118c-0,23.818 -9.402,39.488 -33.847,39.488l-164.218,-0c0.627,78.975 28.832,135.386 85.87,135.386c31.966,-0 54.53,-13.79 70.827,-44.502c3.134,-5.641 5.014,-9.402 11.909,-9.402l8.775,0Zm-48.263,-105.3c0,-77.095 -16.923,-123.477 -60.171,-123.477c-44.502,0 -68.32,46.382 -68.947,123.477l129.118,-0Zm359.149,105.3c6.267,0 8.775,6.268 4.387,14.416c-16.923,35.1 -50.77,60.798 -105.3,60.798c-83.989,0 -151.682,-57.037 -151.682,-163.591c-0,-104.046 70.2,-161.711 144.161,-161.711c72.08,0 129.118,50.143 129.118,129.118c-0,23.818 -9.402,39.488 -33.847,39.488l-164.218,-0c0.627,78.975 28.832,135.386 85.87,135.386c31.966,-0 54.53,-13.79 70.827,-44.502c3.134,-5.641 5.014,-9.402 11.909,-9.402l8.775,0Zm-48.263,-105.3c0,-77.095 -16.923,-123.477 -60.171,-123.477c-44.502,0 -68.32,46.382 -68.947,123.477l129.118,-0Zm363.536,84.616l-21.311,89.631l-228.777,-0c-11.282,-0 -16.296,-10.656 -10.028,-20.684l174.873,-273.906l-92.764,-0c-24.445,-0 -28.832,13.162 -51.397,60.171l-24.444,0l22.564,-84.616l20.057,0c17.55,4.388 28.206,5.015 58.918,5.015c46.382,-0 93.391,-0 154.816,-1.254l-186.782,295.216l93.391,-0.626c33.22,-0 40.741,-15.043 65.186,-68.947l25.698,0Zm126.611,30.086c-0,22.564 13.789,27.578 38.234,25.071l-0,18.804c-54.531,12.536 -77.722,23.191 -93.391,23.191c-10.656,-0 -15.043,-5.014 -15.043,-17.55l-0,-344.733c-0,-21.937 -13.789,-27.578 -38.234,-23.817l-0,-20.058c55.157,-10.028 78.348,-34.473 93.391,-34.473c10.655,0 15.043,5.641 15.043,18.177l-0,355.388Zm378.579,-254.475l-0,20.057l-16.923,1.88c-15.043,1.88 -25.699,8.775 -30.713,22.564l-149.175,395.503c-3.134,6.894 -5.014,11.282 -19.43,11.282c-16.297,-0 -20.684,-4.388 -17.55,-11.282c10.655,-21.938 58.291,-119.09 58.291,-125.358c-0,-12.535 -76.468,-180.514 -114.702,-270.145c-6.268,-14.416 -12.536,-21.937 -22.565,-22.564l-18.803,-1.88l-0,-20.057c48.889,1.88 103.42,1.88 147.295,-0l-0,20.057l-19.431,1.88c-11.282,0.627 -20.057,8.775 -14.416,22.564l77.095,184.902l68.32,-184.902c5.014,-14.416 -8.149,-21.31 -20.058,-22.564l-18.803,-1.88l-0,-20.057c35.727,1.88 67.693,1.88 111.568,-0Z" style="fill:#111;fill-rule:nonzero;"/></g></g><g id="SvgjsG1037"></g></g></svg>